<?xml version="1.0" encoding="UTF-8"?>
<svg width="234px" height="234px" viewBox="0 0 234 234" version="1.1" xmlns="http://www.w3.org/2000/svg" xmlns:xlink="http://www.w3.org/1999/xlink">
    <!-- Generator: Sketch 3.7.2 (28276) - http://www.bohemiancoding.com/sketch -->
    <title>company_tab_2</title>
    <desc>Created with Sketch.</desc>
    <defs></defs>
    <g id="Page-1" stroke="none" stroke-width="1" fill="none" fill-rule="evenodd">
        <g id="company_tab_2">
            <path d="M199.5194,34.2323 C177.601054,12.3137442 147.873271,1.0100468e-05 116.8759,1.0100468e-05 C85.8785292,1.0100468e-05 56.1507463,12.3137442 34.2324,34.2323 C12.3137707,56.1506073 -1.41661728e-05,85.8784048 -1.41661728e-05,116.8758 C-1.41661728e-05,147.873195 12.3137707,177.600993 34.2324,199.5193 C56.1507463,221.437856 85.8785292,233.75159 116.8759,233.75159 C147.873271,233.75159 177.601054,221.437856 199.5194,199.5193 C221.437907,177.600928 233.751607,147.873155 233.751607,116.8758 C233.751607,85.8784455 221.437907,56.1506724 199.5194,34.2323 L199.5194,34.2323 Z M196.5129,196.5129 C168.069245,225.004026 126.580588,236.145595 87.6905033,225.736604 C48.8004191,215.327612 18.4240949,184.951269 8.01512781,146.061178 C-2.39383926,107.171088 8.7477559,65.6824366 37.2389,37.2388 C65.6904955,8.78722235 107.15959,-2.32437405 146.025177,8.08964162 C184.890763,18.5036573 215.248235,48.8611483 225.662227,87.7267416 C236.076218,126.592335 224.964596,168.061422 196.513,196.513 L196.5129,196.5129 Z" id="Shape" fill="#E2E2E2"></path>
            <polygon id="Shape" fill="#000000" points="70.172 148.655 70.174 148.659 70.171 148.654"></polygon>
            <path d="M123.6267,54.6934 C102.119202,54.6990209 82.1407894,65.8153703 70.7976331,84.0884462 C59.4544769,102.361522 58.3564075,125.197994 67.894,144.4751 C73.0067,133.5787 73.266,123.3542 81.0202,112.0145 C86.7502,103.6345 95.0494,97.7373 108.9108,95.9245 C121.1083,94.3301 135.2957,97.3956 144.7977,105.6612 C153.286,113.0457 152.4464,120.5043 157.2549,126.5548 C158.2793,127.8442 163.4522,128.5583 157.5494,131.4048 C157.4403,136.1557 155.4362,133.9736 153.7094,134.1698 C135.5079,136.2298 120.4643,139.5757 120.7494,118.9375 C120.7958,115.5252 117.328,126.2101 123.0619,131.772 C124.2057,132.8809 107.8152,135.0041 105.6055,129.7688 C104.8943,128.0842 104.8343,127.3888 103.7741,129.6038 C102.0388,133.2301 102.6654,139.6641 93.1629,144.0292 C93.0124,140.9151 93.2718,141.3192 91.3856,139.2349 C90.4356,138.1849 90.2138,137.0542 89.9839,135.2823 C89.7695,133.6323 89.7105,134.4081 88.3608,135.4337 C83.0867,139.4419 72.4032,136.0701 70.174,148.659 L70.174,148.659 C85.5455736,174.511545 117.216546,185.657048 145.391003,175.129021 C173.56546,164.600994 190.166593,135.417522 184.817878,105.819707 C179.469163,76.2218925 153.703924,54.694581 123.6267,54.6934 L123.6267,54.6934 Z M108.9916,94.4549 C105.401643,94.8180944 101.873493,95.6426245 98.4944,96.9081 C96.5353,94.8399 94.372,92.566 92.416,90.5319 C95.7447,88.9609 106.7117,85.271 109.3182,88.5144 C110.102266,89.7592878 110.635965,91.1451673 110.8894,92.5944 C111.1825,94.4924 110.6045,94.2801 108.9916,94.4549 L108.9916,94.4549 Z M150.0004,92.3485 C149.574597,92.3491974 149.155452,92.2428378 148.7815,92.0392 C148.1278,93.1617 143.9969,100.2418 143.373,101.3964 C136.572735,96.7761215 128.657816,94.064122 120.453,93.543 L121.6208,83.1201 C120.410161,82.9179067 119.514712,81.8828889 119.488764,80.6557563 C119.462817,79.4286236 120.313714,78.3566793 121.514724,78.1034917 C122.715733,77.8503041 123.926945,78.4875305 124.398579,79.6207069 C124.870214,80.7538833 124.468789,82.0622981 123.4428,82.736 C124.4177,84.1216 126.5165,88.1323 127.5897,89.246 L136.2159,80.5025 C135.435209,79.6426421 135.333347,78.3641771 135.968035,77.3915489 C136.602723,76.4189208 137.813962,75.9973186 138.915402,76.365644 C140.016842,76.7339693 140.730822,77.7993712 140.652764,78.9581382 C140.574706,80.1169053 139.724288,81.0769246 138.5834,81.2942 L140.3701,93.4313 C142.6344,92.5636 144.8817,91.6746 147.1369,90.7835 C147.276095,90.7041688 147.429861,90.6537297 147.589,90.6352 C147.223559,89.5859895 147.578572,88.4208974 148.467,87.7537507 C149.355429,87.0866041 150.573302,87.0705702 151.478987,87.7140964 C152.384671,88.3576226 152.770233,89.5129647 152.432541,90.5714323 C152.094849,91.6298999 151.111431,92.3484842 150.0004,92.3486 L150.0004,92.3485 Z" id="Shape" fill="#E2E2E2"></path>
            <path d="M69.9567,148.2914 L69.9218,148.2314 L69.9131,148.2164 L69.9097,148.2107 L69.9042,148.2014 L69.8955,148.1864 L69.8867,148.172 L69.8779,148.157 L69.872,148.147 L69.8691,148.1422 L69.8607,148.1272 L69.8519,148.1124 L69.8431,148.0977 L69.8346,148.0829 L69.8346,148.0824 L69.8262,148.0677 L69.8167,148.0524 L69.8083,148.0374 L69.7994,148.0224 L69.7967,148.0184 L69.7908,148.0077 L69.782,147.9927 L69.7737,147.9776 L69.7652,147.9629 L69.7601,147.9541 L69.7567,147.9476 L69.7483,147.9326 L69.7391,147.9181 L69.7306,147.9028 L69.7231,147.8895 L69.7219,147.8881 L69.7134,147.8728 L69.7046,147.8578 L69.6962,147.843 L69.6873,147.8277 L69.6858,147.8251 L69.6787,147.8129 L69.6703,147.7976 L69.6614,147.7829 L69.653,147.7678 L69.6488,147.7607 L69.6445,147.7528 L69.6357,147.7378 L69.6272,147.7231 L69.6186,147.7078 L69.6118,147.6959 L70.1712,148.6544 L68.0278,144.7424 L68.0711,144.8288 L68.0721,144.8308 L68.0821,144.8501 L68.0921,144.8694 L68.0949,144.8753 L68.0716,144.8288 L68.0629,144.8118 L68.0615,144.8087 L68.0533,144.7925 L68.0433,144.7733 L68.0333,144.754 L68.0277,144.7423 L68.0236,144.7348 L68.0136,144.7155 L67.9269,144.5417 L67.894,144.4751 C63.4227,154.0038 47.864,153.271 47.9433,168.0616 C52.4609,165.9549 53.1965,165.8948 56.2695,162.7816 C56.9884,162.0533 56.8651,161.6979 57.5519,162.4527 C57.9511956,162.865046 58.2688511,163.349232 58.4881,163.8797 C59.5911,166.5956 63.804,169.0075 65.8549,171.0097 L66.5071,171.9714 C69.0454,175.9181 67.9018,175.5051 68.543,177.5293 C72.9203,173.4905 71.596,161.8276 70.7954,156.8245 C70.426,154.5151 69.7372,152.3384 70.0426,149.576 C70.0768667,149.2648 70.1207,148.959133 70.1741,148.659 L70.1717,148.6552 C70.0996,148.5343 70.0277,148.4126 69.9567,148.2914 L69.9567,148.2914 Z M68.555,145.7692 L68.535,145.7312 L68.525,145.7122 L68.515,145.6932 L68.505,145.6742 L68.5036,145.6713 L68.4949,145.6549 L68.4849,145.6359 L68.4749,145.6166 L68.4688,145.6053 L68.4648,145.5976 L68.4548,145.5783 L68.4448,145.5596 L68.4354,145.5401 L68.4354,145.5389 L68.4261,145.5211 L68.4161,145.5018 L68.4061,145.4828 L68.4007,145.4728 L68.3962,145.4635 L68.3862,145.4445 L68.3762,145.4252 L68.3662,145.4065 L68.3662,145.4065 L68.3562,145.3872 L68.3462,145.3682 L68.3362,145.349 L68.3321,145.3401 L68.3267,145.3301 L68.3167,145.3109 L68.3067,145.2919 L68.2977,145.2743 L68.2967,145.2725 L68.2867,145.2535 L68.2767,145.2342 L68.2667,145.2149 L68.2629,145.2078 L68.2569,145.1959 L68.2469,145.1766 L68.2369,145.1576 L68.2307,145.1436 L68.228,145.1384 L68.218,145.1191 L68.208,145.1001 L68.198,145.0801 L68.1952,145.0744 L68.1881,145.0611 L68.1781,145.0418 L68.1681,145.0228 L68.1603,145.0077 L68.1579,145.0032 L68.1484,144.9842 L68.1384,144.9652 L68.1284,144.9452 L68.1261,144.9409 L68.1186,144.9259 L68.1086,144.9066 L68.0986,144.8876 L68.6414,145.9369 L68.555,145.7692 Z M68.7129,146.0675 L68.7075,146.0575 L68.6985,146.0401 L68.7129,146.0671 L68.7167,146.0744 L68.7259,146.0915 L68.7352,146.1085 L68.7442,146.1258 L68.7477,146.1326 L68.7129,146.0675 Z M69.2337,147.0249 L69.2149,146.9911 L69.2104,146.9829 L69.2055,146.9741 L69.1967,146.9574 L69.1867,146.9401 L69.1774,146.9234 L69.174,146.9175 L69.1681,146.9064 L69.1589,146.8901 L69.1496,146.8731 L69.1402,146.8561 L69.1386,146.8527 L69.1308,146.8391 L69.1215,146.8224 L69.1121,146.8054 L69.1031,146.7887 L69.1026,146.7875 L69.0937,146.7715 L69.0844,146.7545 L69.0751,146.7375 L69.0667,146.7219 L69.0514,146.6938 L69.0431,146.6787 L69.0378,146.6701 L69.0308,146.657 L69.0428,146.679 L69.0444,146.6819 L69.0194,146.6361 L69.0103,146.6191 L69.0009,146.6021 L68.995,146.5921 L68.9915,146.5856 L68.9825,146.5686 L68.9732,146.5516 L68.9632,146.5346 L68.959,146.5267 L68.9542,146.5176 L68.9454,146.5001 L68.9364,146.4831 L68.9267,146.4659 L68.9241,146.4601 L68.918,146.4485 L68.9088,146.4315 L68.8994,146.4145 L68.8901,146.3975 L68.8887,146.395 L68.8811,146.3808 L68.8721,146.3638 L68.8629,146.3471 L68.8536,146.3301 L68.8536,146.3295 L68.8445,146.3131 L68.8355,146.2961 L68.8261,146.2791 L68.8179,146.2638 L68.8167,146.2621 L68.8077,146.2451 L68.7987,146.2281 L68.7898,146.2111 L68.7828,146.1983 L68.7805,146.1938 L68.7715,146.1768 L68.7625,146.1598 L69.4054,147.3317 C69.3476,147.229567 69.2903667,147.1273 69.2337,147.0249 L69.2337,147.0249 Z M69.4561,147.422 L69.4477,147.4073 L69.4393,147.392 L69.4137,147.3466 L69.4637,147.4358 L69.4561,147.422 Z M69.5072,147.512 L69.5013,147.502 L69.4987,147.4972 L69.4903,147.4822 L69.4817,147.4673 L69.4733,147.4523 L69.4648,147.4372 L69.4648,147.4372 L69.5158,147.5272 L69.5072,147.512 Z M69.5751,147.6312 L69.5751,147.6312 L69.5737,147.6293 L69.5613,147.6074 L69.5585,147.6026 L69.5501,147.5876 L69.5613,147.6076 L69.5673,147.6176 L69.5737,147.6293 L69.575,147.6317 L69.5759,147.6327 L69.5843,147.648 L69.5928,147.6627 L69.6013,147.6778 L69.6097,147.6931 L69.5751,147.6312 Z" id="Shape" fill="#E2E2E2"></path>
            <polygon id="Shape" fill="#000000" points="69.057 146.703 69.047 146.686 69.044 146.681 69.051 146.694 69.066 146.72"></polygon>
            <path d="M138.7814,113.3368 C138.556208,112.720401 138.091101,112.221403 137.492038,111.953482 C136.892974,111.685561 136.210972,111.671536 135.6014,111.9146 C134.992358,112.115172 134.488997,112.55128 134.203717,113.125541 C133.918437,113.699803 133.874998,114.36439 134.0831,114.9709 C135.0262,117.735 139.7436,116.5723 138.7814,113.3368 L138.7814,113.3368 Z" id="Shape" fill="#E2E2E2"></path>
            <polygon id="Shape" fill="#E2E2E2" points="68.231 145.144 68.248 145.177 68.23 145.141"></polygon>
        </g>
    </g>
</svg>